<svg width="183" height="56" viewBox="0 0 183 56" fill="none" xmlns="http://www.w3.org/2000/svg">
<path fill-rule="evenodd" clip-rule="evenodd" d="M87.7773 8.07122C77.1348 16.0531 61.7532 20.2764 48.4502 20.2764C29.8675 20.2764 13.1139 13.308 0.434486 1.65192C-0.563242 0.722808 0.30977 -0.501929 1.51536 0.21602C15.1925 8.28238 32.1124 13.1813 49.5726 13.1813C61.3375 13.1813 74.3079 10.6896 86.2391 5.57952C88.0267 4.77711 89.5649 6.76202 87.7773 8.07122Z" transform="translate(25.7139 35.7227)" fill="#FFD646"/>
<path fill-rule="evenodd" clip-rule="evenodd" d="M13.3111 4.89603C11.9393 3.12228 4.33158 4.05139 0.881098 4.47371C-0.158202 4.6004 -0.324493 3.67129 0.631664 2.99558C6.70118 -1.35435 16.6785 -0.0873783 17.8425 1.34852C19.0065 2.82665 17.5515 12.9624 11.8145 17.8191C10.9415 18.5793 10.1101 18.157 10.4842 17.1856C11.773 13.9337 14.683 6.66979 13.3111 4.89603Z" transform="translate(104.629 33.7891)" fill="#FFD646"/>
<path fill-rule="evenodd" clip-rule="evenodd" d="M1.08087 5.27903V1.05581C1.08087 0.422323 1.57973 0 2.12017 0H20.7444C21.3264 0 21.8253 0.422323 21.8253 1.05581V4.68778C21.8253 5.27903 21.3264 6.08145 20.4119 7.34842L10.7672 21.3273C14.3423 21.2428 18.1254 21.7919 21.368 23.6501C22.1163 24.0724 22.2826 24.7059 22.3657 25.2971V29.816C22.3657 30.4495 21.7006 31.1674 20.9939 30.7873C15.2569 27.7466 7.64925 27.4087 1.3303 30.8296C0.665151 31.1674 0 30.4495 0 29.8582V25.5083C0 24.8326 -1.2885e-06 23.6501 0.706723 22.5943L11.8896 6.33484H2.16174C1.57974 6.33484 1.08087 5.91252 1.08087 5.27903Z" transform="translate(104.679 0.84375)" fill="#FFD646"/>
<path fill-rule="evenodd" clip-rule="evenodd" d="M6.65152 32.181H0.997729C0.457293 32.1388 0.041572 31.7164 0 31.2097V1.68929C0 1.09804 0.498864 0.633484 1.08087 0.633484H6.36052C6.90096 0.675716 7.35825 1.09804 7.39982 1.60483V5.44796H7.52453C8.89641 1.73152 11.4739 0 14.9659 0C18.4995 0 20.7444 1.73152 22.3242 5.44796C23.696 1.73152 26.814 0 30.1397 0C32.5093 0 35.1283 0.971342 36.7081 3.20965C38.4957 5.70136 38.1215 9.2911 38.1215 12.4585V31.083C38.1215 31.6742 37.6227 32.1388 37.0407 32.1388H31.3869C30.8049 32.0965 30.3891 31.632 30.3891 31.083V15.457C30.3891 14.2323 30.5139 11.1071 30.2229 9.92458C29.8071 7.93967 28.5184 7.39065 26.8971 7.39065C25.5252 7.39065 24.1118 8.31976 23.5298 9.79789C22.9478 11.276 22.9893 13.7677 22.9893 15.457V31.1252C22.9893 31.7164 22.4905 32.181 21.9085 32.181H16.1715C15.5895 32.1388 15.1738 31.6742 15.1738 31.1252V15.457C15.1738 12.1629 15.7142 7.30618 11.6817 7.30618C7.60768 7.30618 7.77397 12.0362 7.77397 15.457V31.1252C7.7324 31.7164 7.23353 32.181 6.65152 32.181Z" transform="translate(31.2207 0.294922)" fill="#FFD646"/>
<path fill-rule="evenodd" clip-rule="evenodd" d="M12.721 0C21.1186 0 25.6915 7.30618 25.6915 16.6395C25.6915 25.635 20.6613 32.8145 12.721 32.8145C4.48977 32.8145 0 25.4661 0 16.3439C0 7.13726 4.53134 0 12.721 0ZM12.8042 5.99698C8.64697 5.99698 8.35596 11.7828 8.35596 15.3725C8.35596 18.9623 8.31439 26.6908 12.7626 26.6908C17.1692 26.6908 17.3771 20.4827 17.3771 16.6817C17.3771 14.19 17.2524 11.2338 16.5457 8.86878C15.8389 6.84163 14.5918 5.99698 12.8042 5.99698Z" transform="translate(129.788 0.294922)" fill="#FFD646"/>
<path fill-rule="evenodd" clip-rule="evenodd" d="M6.65152 32.181H0.997726C0.415718 32.1388 0 31.6742 0 31.1252V1.56259C0.041572 1.01357 0.540426 0.591252 1.08086 0.591252H6.31894C6.8178 0.633484 7.23352 0.971342 7.31666 1.4359V5.95475H7.44139C9.02112 1.90045 11.266 0 15.1738 0C17.7097 0 20.204 0.92911 21.7837 3.46305C23.2803 5.82805 23.2803 9.79789 23.2803 12.6697V31.2519C23.1972 31.7587 22.7399 32.181 22.1995 32.181H16.5041C15.9636 32.1388 15.5479 31.7587 15.5064 31.2519V15.2036C15.5064 11.994 15.8805 7.26395 11.9727 7.26395C10.6009 7.26395 9.31213 8.19306 8.68855 9.62896C7.89868 11.4449 7.77396 13.2187 7.77396 15.2036V31.083C7.73239 31.7164 7.23353 32.181 6.65152 32.181Z" transform="translate(159.72 0.294922)" fill="#FFD646"/>
<path fill-rule="evenodd" clip-rule="evenodd" d="M16.7119 18.371C16.7119 20.6094 16.7535 22.4676 15.6311 24.4947C14.7165 26.0995 13.303 27.1131 11.7233 27.1131C9.56156 27.1131 8.27283 25.4238 8.27283 22.9321C8.27283 18.0332 12.5963 17.1463 16.7119 17.1463V18.371ZM22.4073 32.3922C22.0332 32.73 21.4927 32.7722 21.077 32.5189C19.2063 30.914 18.8737 30.1961 17.8344 28.6757C14.7165 31.8854 12.5132 32.8567 8.48069 32.8567C3.69991 32.8567 0 29.8582 0 23.9035C0 19.2157 2.49432 16.0483 6.02794 14.4857C9.10427 13.1342 13.3862 12.8808 16.6704 12.5008V11.7406C16.6704 10.3469 16.7951 8.74208 15.9636 7.55958C15.2985 6.50377 13.9682 6.08145 12.8042 6.08145C10.6424 6.08145 8.73012 7.22172 8.27283 9.54449C8.18968 10.0513 7.81554 10.5581 7.2751 10.6003L1.7876 10.009C1.33031 9.88235 0.789869 9.54449 0.956158 8.82655C2.20332 2.06938 8.23126 0 13.6356 0C16.3794 0 19.9961 0.760181 22.1579 2.87179C24.9016 5.4902 24.6522 8.99548 24.6522 12.7541V21.7074C24.6522 24.4103 25.7331 25.5928 26.7724 27.0287C27.1465 27.5354 27.2297 28.1689 26.7724 28.549C25.6084 29.5626 23.5713 31.3786 22.4073 32.3922Z" transform="translate(74.2061)" fill="#FFD646"/>
<path fill-rule="evenodd" clip-rule="evenodd" d="M16.6704 18.371C16.6704 20.6094 16.7119 22.4676 15.5895 24.4947C14.6749 26.0995 13.2615 27.1131 11.6817 27.1131C9.51999 27.1131 8.23126 25.4238 8.23126 22.9321C8.23126 18.0332 12.5547 17.1463 16.6704 17.1463V18.371ZM22.4073 32.3922C22.0332 32.73 21.4927 32.7722 21.077 32.5189C19.2063 30.914 18.8737 30.1961 17.8344 28.6757C14.7165 31.8854 12.5132 32.8567 8.52226 32.8567C3.69991 32.8989 0 29.9005 0 23.9035C0 19.2579 2.49432 16.0483 6.02794 14.4857C9.10427 13.1342 13.3862 12.8808 16.6704 12.5008V11.7406C16.6704 10.3469 16.7951 8.74208 15.9637 7.55958C15.2985 6.50377 13.9682 6.08145 12.8042 6.08145C10.6424 6.08145 8.73012 7.22172 8.27283 9.54449C8.18969 10.0513 7.81554 10.5581 7.2751 10.6003L1.7876 10.0091C1.3303 9.88235 0.789868 9.54449 0.956156 8.82655C2.20332 2.02715 8.23126 0 13.594 0C16.3794 0 19.9546 0.760181 22.1579 2.87179C24.9016 5.4902 24.6522 8.99548 24.6522 12.7541V21.7074C24.6522 24.4103 25.7331 25.5928 26.7724 27.0287C27.1465 27.5354 27.2297 28.1689 26.7724 28.549C25.6084 29.5626 23.5298 31.3786 22.4073 32.3922Z" fill="#FFD646"/>
</svg>
