<svg width="123" height="123" viewBox="0 0 123 123" fill="none" xmlns="http://www.w3.org/2000/svg">
<path fill-rule="evenodd" clip-rule="evenodd" d="M84.5625 0C90.5586 0 96.8115 0.769531 102.5 2.5625C106.344 3.84375 109.675 5.38086 112.75 7.6875V82.5117C112.75 83.793 111.469 85.0742 110.188 85.0742C109.675 85.0742 109.419 85.0742 108.906 84.8184C101.731 80.9746 93.0186 79.4375 84.5625 79.4375C75.8496 79.4375 63.2939 82.7695 56.375 87.125C48.9434 81.4883 38.1816 79.4375 28.1875 79.4375C20.7559 79.4375 10.7627 81.7441 3.84375 85.0742C3.58789 85.0742 3.39551 85.1387 3.20312 85.2031C3.01074 85.2676 2.81836 85.332 2.5625 85.332C1.28125 85.332 0 84.0508 0 82.7695V7.6875C7.43164 2.05078 18.1934 0 28.1875 0C38.1816 0 48.9434 2.05078 56.375 7.6875C63.8066 2.05078 74.5684 0 84.5625 0ZM84.5625 69.1875C90.7129 69.1875 96.8623 69.957 102.5 71.75V12.8125C96.8623 11.0195 90.7129 10.25 84.5625 10.25C75.8496 10.25 63.2939 13.582 56.375 17.9375V76.875C63.2939 72.5195 75.8496 69.1875 84.5625 69.1875Z" transform="translate(5.125 23.0625)" fill="black"/>
<mask id="mask0" mask-type="alpha" maskUnits="userSpaceOnUse" x="5" y="23" width="113" height="88">
<path fill-rule="evenodd" clip-rule="evenodd" d="M84.5625 0C90.5586 0 96.8115 0.769531 102.5 2.5625C106.344 3.84375 109.675 5.38086 112.75 7.6875V82.5117C112.75 83.793 111.469 85.0742 110.188 85.0742C109.675 85.0742 109.419 85.0742 108.906 84.8184C101.731 80.9746 93.0186 79.4375 84.5625 79.4375C75.8496 79.4375 63.2939 82.7695 56.375 87.125C48.9434 81.4883 38.1816 79.4375 28.1875 79.4375C20.7559 79.4375 10.7627 81.7441 3.84375 85.0742C3.58789 85.0742 3.39551 85.1387 3.20312 85.2031C3.01074 85.2676 2.81836 85.332 2.5625 85.332C1.28125 85.332 0 84.0508 0 82.7695V7.6875C7.43164 2.05078 18.1934 0 28.1875 0C38.1816 0 48.9434 2.05078 56.375 7.6875C63.8066 2.05078 74.5684 0 84.5625 0ZM84.5625 69.1875C90.7129 69.1875 96.8623 69.957 102.5 71.75V12.8125C96.8623 11.0195 90.7129 10.25 84.5625 10.25C75.8496 10.25 63.2939 13.582 56.375 17.9375V76.875C63.2939 72.5195 75.8496 69.1875 84.5625 69.1875Z" transform="translate(5.125 23.0625)" fill="white"/>
</mask>
<g mask="url(#mask0)">
<path fill-rule="evenodd" clip-rule="evenodd" d="M0 0H246V246H0V0Z" transform="translate(-61 -61)" fill="#FFD646"/>
</g>
</svg>
