<svg width="111" height="111" viewBox="0 0 111 111" fill="none" xmlns="http://www.w3.org/2000/svg">
<path fill-rule="evenodd" clip-rule="evenodd" d="M46.25 18.5H92.5V83.25H0V0H46.25V18.5ZM9.25 74H18.5V64.75H9.25V74ZM18.5 55.5H9.25V46.25H18.5V55.5ZM9.25 37H18.5V27.75H9.25V37ZM18.5 18.5H9.25V9.25H18.5V18.5ZM27.75 74H37V64.75H27.75V74ZM37 55.5H27.75V46.25H37V55.5ZM27.75 37H37V27.75H27.75V37ZM37 18.5H27.75V9.25H37V18.5ZM83.25 74V27.75H46.25V37H55.5V46.25H46.25V55.5H55.5V64.75H46.25V74H83.25ZM74 37H64.75V46.25H74V37ZM64.75 55.5H74V64.75H64.75V55.5Z" transform="translate(9.25 13.875)" fill="black"/>
<mask id="mask0" mask-type="alpha" maskUnits="userSpaceOnUse" x="9" y="13" width="93" height="85">
<path fill-rule="evenodd" clip-rule="evenodd" d="M46.25 18.5H92.5V83.25H0V0H46.25V18.5ZM9.25 74H18.5V64.75H9.25V74ZM18.5 55.5H9.25V46.25H18.5V55.5ZM9.25 37H18.5V27.75H9.25V37ZM18.5 18.5H9.25V9.25H18.5V18.5ZM27.75 74H37V64.75H27.75V74ZM37 55.5H27.75V46.25H37V55.5ZM27.75 37H37V27.75H27.75V37ZM37 18.5H27.75V9.25H37V18.5ZM83.25 74V27.75H46.25V37H55.5V46.25H46.25V55.5H55.5V64.75H46.25V74H83.25ZM74 37H64.75V46.25H74V37ZM64.75 55.5H74V64.75H64.75V55.5Z" transform="translate(9.25 13.875)" fill="white"/>
</mask>
<g mask="url(#mask0)">
<path fill-rule="evenodd" clip-rule="evenodd" d="M0 0H222V222H0V0Z" transform="translate(-55.5 -55.5)" fill="#FFD646"/>
</g>
</svg>
