<svg width="270" height="55" viewBox="0 0 270 55" fill="none" xmlns="http://www.w3.org/2000/svg">
<path fill-rule="evenodd" clip-rule="evenodd" d="M95.7929 27.7758C95.2163 28.3544 94.3514 28.6438 93.7749 29.2224C85.4145 37.3237 77.3425 45.7143 69.2704 53.8156C68.6939 54.3942 67.829 54.6835 66.9641 54.6835C50.2435 54.6835 33.2345 54.6835 16.5138 54.6835C14.4958 54.6835 13.9193 54.3942 13.9193 52.0796C13.9193 39.349 13.9193 26.9078 13.9193 14.1772C13.9193 13.5986 13.9193 13.0199 13.9193 12.1519C13.3427 12.4412 13.0544 12.7306 12.7661 12.7306C11.9012 13.5986 11.0364 14.1772 10.4598 14.7559C6.42378 17.9385 6.42378 17.9385 1.23461 17.9385C0.369747 17.9385 0.0814577 17.6492 0.0814577 16.7812C-0.20683 11.5732 0.0814594 11.5732 4.11748 8.3906C7.57693 5.78662 10.7481 3.18264 14.2075 0.578662L14.4958 0.289331C17.0904 0.289331 19.685 0 21.9913 0.289331C22.2796 0.289331 22.8562 1.44665 22.8562 2.02532C22.8562 6.07595 22.8562 9.83725 22.8562 13.8879C22.8562 24.0145 22.8562 33.8517 22.8562 43.9783C22.8562 46.0036 22.8562 46.0036 24.8742 46.0036C37.5588 46.0036 50.2435 46.0036 63.2164 46.0036C64.0813 46.0036 64.9461 45.7143 65.5227 45.1356C71.0002 39.6383 76.4776 34.141 81.9551 28.6438C82.8199 27.7758 82.8199 27.4864 81.9551 26.6184C76.4776 21.1212 70.7119 15.6239 65.2344 10.1266C64.6578 9.54792 63.793 9.25859 62.9281 9.25859C55.1444 9.25859 47.6489 9.25859 39.8651 9.25859C36.9822 9.25859 36.9822 9.25859 36.9822 6.36528C36.9822 4.91863 36.9822 3.47197 36.9822 2.02532C36.9822 0.578662 37.5588 0 39.0003 0C48.5137 0 58.0272 0 67.5407 0C68.1173 0 68.6939 0.289331 68.9821 0.578662C77.6308 9.25859 86.5677 18.2278 95.2163 26.9078C95.2163 26.9078 95.2163 26.9078 95.7929 27.7758Z" transform="translate(32.207 0.316406)" fill="#FFD646"/>
<path fill-rule="evenodd" clip-rule="evenodd" d="M13.2612 13.046C11.5315 14.4926 9.51349 15.65 7.78376 17.3859C6.9189 17.9646 6.05404 18.5433 4.90089 18.2539C3.17116 18.2539 1.72972 18.2539 0 18.2539C0 16.2286 0 14.2033 0 12.178C0 11.8887 0.288287 11.5993 0.576575 11.31C5.18917 7.83802 9.51349 4.36605 14.1261 0.604751C14.9909 0.0260889 21.3333 -0.263242 21.9098 0.31542C22.4864 0.894082 22.7747 1.76207 22.7747 2.34074C22.7747 7.25936 22.7747 12.178 22.7747 17.0966C22.7747 28.9592 22.7747 40.5324 22.7747 52.395C22.7747 54.7096 22.4864 54.999 20.1801 54.999C18.7387 54.999 17.2972 54.999 15.8558 54.999C13.8378 54.999 13.5495 54.7096 13.5495 52.6843C13.5495 39.9538 13.5495 27.2232 13.5495 14.4926C13.5495 13.914 13.5495 13.6246 13.5495 13.046C13.5495 13.046 13.5495 13.046 13.2612 13.046Z" fill="#FFD646"/>
<path d="M16.1775 0C7.37992 0 0 3.74688 0 14.9875C0 23.8968 4.91995 29.5171 16.3859 29.5171C29.8532 29.5171 30.7288 20.6495 30.7288 20.6495H24.1828C24.1828 20.6495 22.7652 25.4371 15.969 25.4371C10.4236 25.4371 6.42095 21.6903 6.42095 16.4446H31.3959V13.1557C31.3959 7.99334 28.1021 0 16.1775 0ZM15.9273 4.20483C21.2225 4.20483 24.8082 7.45212 24.8082 12.2814H6.58773C6.58773 7.11907 11.2992 4.20483 15.9273 4.20483Z" transform="translate(145 13.9082)" fill="#FFD646"/>
<path d="M0.125085 0V34.8043C0.125085 36.761 0 39.5504 0 39.5504H6.21248C6.21248 39.5504 6.42095 37.552 6.42095 35.7202C6.42095 35.7202 9.50634 40.5079 17.8869 40.5079C26.6845 40.5079 32.6885 34.388 32.6885 25.6453C32.6885 17.4854 27.1848 10.9492 17.8869 10.9492C9.17278 10.9492 6.50434 15.6536 6.50434 15.6536V0H0.125085ZM16.3025 15.3206C22.3065 15.3206 26.1007 19.7752 26.1007 25.6869C26.1007 32.0566 21.7228 36.2614 16.3442 36.2614C9.96498 36.2614 6.50434 31.2656 6.50434 25.7702C6.50434 20.6078 9.58973 15.3206 16.3025 15.3206Z" transform="translate(176.271 3)" fill="#FFD646"/>
<path d="M16.2191 0C2.9603 0 2.08472 7.24396 2.08472 8.40966H8.67244C8.67244 8.40966 9.006 4.1632 15.7188 4.1632C20.0967 4.1632 23.474 6.16153 23.474 9.99167V11.3655H15.7188C5.46197 11.3655 0 14.363 0 20.4413C0 26.4363 5.00333 29.6836 11.7995 29.6836C21.0557 29.6836 24.016 24.5629 24.016 24.5629C24.016 26.6028 24.1828 28.6012 24.1828 28.6012H30.0617C30.0617 28.6012 29.8532 26.1032 29.8532 24.5212V10.8659C29.8949 1.91507 22.6401 0 16.2191 0ZM23.5157 15.4455V17.2773C23.5157 19.6503 22.0564 25.562 13.4256 25.562C8.71414 25.562 6.67111 23.189 6.67111 20.4829C6.67111 15.4871 13.509 15.4455 23.5157 15.4455Z" transform="translate(208.209 13.9082)" fill="#FFD646"/>
<path d="M0 0H7.42162L18.0954 21.3156L28.7275 0H35.4403L16.0524 37.9684H9.006L14.5931 27.3938L0 0Z" transform="translate(234.56 15.0312)" fill="#FFD646"/>
</svg>
