<svg width="190" height="178" viewBox="0 0 190 178" fill="none" xmlns="http://www.w3.org/2000/svg">
<path fill-rule="evenodd" clip-rule="evenodd" d="M151.719 23.2856L129.738 1.21101C128.966 0.437805 127.923 0 126.829 0C125.737 0 124.692 0.437805 123.919 1.21101L44.4896 80.9607L29.0112 65.425C27.4047 63.812 24.8012 63.812 23.1921 65.425L1.20614 87.4996C0.433498 88.2728 0 89.3251 0 90.4209C0 91.5141 0.433498 92.5664 1.20614 93.3421L41.45 133.738C42.2201 134.511 43.2656 134.949 44.3596 134.949C44.408 134.949 44.4539 134.923 44.5023 134.923C44.5431 134.923 44.5865 134.946 44.6299 134.946C45.6855 134.946 46.7336 134.542 47.5394 133.735L151.719 29.1307C153.326 27.5126 153.326 24.8986 151.719 23.2856Z" transform="translate(37.0762)" fill="#231F20"/>
<path fill-rule="evenodd" clip-rule="evenodd" d="M137.755 84.138V138.311H25.4438V25.5463H104.646L130.093 0H13.2421V0.0179219C13.1834 0.0179219 13.1299 0 13.0687 0C5.95932 0 0.203999 5.70683 0.0305998 12.8013H0V151.056H0.0331498C0.203999 158.04 5.79357 163.652 12.7499 163.824V163.857H13.0687H13.0712H150.128H150.13H150.449V163.824C157.408 163.652 162.995 158.04 163.166 151.056H163.199V58.5917L137.755 84.138Z" transform="translate(0 14.1431)" fill="black"/>
</svg>
