<?xml version="1.0" encoding="utf-8"?>
<!-- Generator: Adobe Illustrator 22.0.0, SVG Export Plug-In . SVG Version: 6.00 Build 0)  -->
<svg version="1.1" id="Layer_1" xmlns="http://www.w3.org/2000/svg" xmlns:xlink="http://www.w3.org/1999/xlink" x="0px" y="0px"
	 viewBox="0 0 1920 1080" style="enable-background:new 0 0 1920 1080;" xml:space="preserve">
<g>
	<path d="M330.1,176.2l0,2.4h-6.8v-0.4l1.2-0.1c0-1.2,0-2.4,0-3.6v-0.6c0-1.2,0-2.4,0-3.5l-1.2-0.1v-0.4h6.6l0,2.3h-0.6l-0.4-1.8h-3
		c0,1.2,0,2.3,0,3.6h1.9l0.2-1.3h0.6v3h-0.6l-0.2-1.3h-1.9c0,1.3,0,2.5,0,3.7h3.2l0.4-1.8H330.1z"/>
	<path d="M339.6,170.2l-1.2,0.2l0,4.6c0,2.7-1.2,3.8-3.1,3.8c-2,0-3.3-1-3.3-3.6v-1.4c0-1.2,0-2.4,0-3.5l-1.1-0.1v-0.4h3.8v0.4
		l-1.3,0.1c0,1.2,0,2.3,0,3.5v1.1c0,2.3,0.8,3,2.2,3c1.5,0,2.3-0.9,2.3-3.2l0-4.4l-1.4-0.2v-0.4h3.2V170.2z"/>
	<path d="M344.2,169.8c2.7,0,4.4,1.6,4.4,4.4c0,2.8-1.9,4.4-4.6,4.4h-3.6v-0.4l1.2-0.1c0-1.2,0-2.4,0-3.7v-0.4c0-1.2,0-2.4,0-3.6
		l-1.2-0.1v-0.4H344.2z M343.9,178.1c2,0,3.2-1.4,3.2-3.9c0-2.6-1.1-3.9-3.1-3.9h-1c0,1.2,0,2.4,0,3.6v0.4c0,1.3,0,2.6,0,3.8H343.9z
		"/>
	<path d="M352.1,170.3c0,1.2,0,2.3,0,3.5v0.6c0,1.2,0,2.4,0,3.6l1.2,0.1v0.4h-3.8v-0.4l1.2-0.1c0-1.2,0-2.4,0-3.6v-0.6
		c0-1.2,0-2.4,0-3.5l-1.2-0.1v-0.4h3.8v0.4L352.1,170.3z"/>
	<path d="M361.4,176.2l0,2c-0.8,0.5-1.7,0.7-2.7,0.7c-2.6,0-4.5-1.8-4.5-4.6c0-2.8,2-4.6,4.6-4.6c0.9,0,1.7,0.2,2.5,0.6v2h-0.7
		l-0.4-1.8c-0.4-0.2-0.8-0.3-1.2-0.3c-1.8,0-3.2,1.4-3.2,4.1c0,2.7,1.3,4.1,3.2,4.1c0.5,0,0.9-0.1,1.4-0.3l0.4-1.8H361.4z"/>
	<path d="M370.7,174.2c0,2.9-1.9,4.6-4.1,4.6c-2.1,0-4.1-1.6-4.1-4.6c0-2.9,2-4.6,4.1-4.6S370.7,171.2,370.7,174.2z M366.6,178.3
		c1.7,0,2.5-1.9,2.5-4.1c0-2.2-0.8-4.1-2.5-4.1c-1.7,0-2.5,1.9-2.5,4.1C364.1,176.4,364.9,178.3,366.6,178.3z"/>
	<path d="M379.6,178.2v0.4c-0.3,0.1-0.6,0.1-1.1,0.1c-0.9,0-1.3-0.3-1.5-0.9l-0.5-2c-0.2-1-0.6-1.3-1.7-1.3h-0.7c0,1.2,0,2.4,0,3.6
		l1.2,0.1v0.4h-3.8v-0.4l1.2-0.1c0-1.2,0-2.4,0-3.6v-0.6c0-1.2,0-2.4,0-3.5l-1.2-0.1v-0.4h3.8c2,0,3.2,0.9,3.2,2.3
		c0,1-0.7,1.9-2.3,2.2c1,0.2,1.5,0.7,1.7,1.8l0.6,2.1L379.6,178.2z M375.2,174c1.4,0,2-0.8,2-1.9c0-1.2-0.6-1.8-2-1.8h-1
		c0,1.2,0,2.4,0,3.7H375.2z"/>
	<path d="M387.2,176.2l0,2.4h-6.8v-0.4l1.2-0.1c0-1.2,0-2.4,0-3.6v-0.6c0-1.2,0-2.4,0-3.5l-1.2-0.1v-0.4h6.6l0,2.3h-0.6l-0.4-1.8h-3
		c0,1.2,0,2.3,0,3.6h1.9l0.2-1.3h0.6v3H385l-0.2-1.3h-1.9c0,1.3,0,2.5,0,3.7h3.2l0.4-1.8H387.2z"/>
</g>
</svg>
