<svg width="155" height="171" viewBox="0 0 155 171" fill="none" xmlns="http://www.w3.org/2000/svg">
<path fill-rule="evenodd" clip-rule="evenodd" d="M146.624 109.942L109.958 92.4551L94.4527 85.0599C101.224 80.7946 106.724 74.2117 110.323 66.2828C113.177 59.9855 114.877 52.8596 114.877 45.2373C114.877 40.9603 114.198 36.8987 113.252 32.9799C108.639 13.9898 93.8065 0 76 0C58.5307 0 43.9226 13.4911 39.0244 31.9405C37.8935 36.173 37.1161 40.574 37.1161 45.2373C37.1161 53.3348 39.008 60.8845 42.2227 67.451C45.9386 75.0685 51.4479 81.3494 58.1537 85.3876L43.3045 92.3006L5.44847 109.928C2.16113 111.469 0 115.177 0 119.318V154.578V160.906C0 166.48 3.88441 170.998 8.67963 170.998H64.904V139.156C64.904 138.811 65.0211 138.505 65.1827 138.228L65.1592 138.214L74.368 122.268L74.3914 122.282C74.7192 121.72 75.3023 121.322 76 121.322C76.6977 121.322 77.2807 121.717 77.6085 122.282L77.6179 122.275L77.7022 122.422C77.7139 122.446 77.7303 122.464 77.7397 122.488L86.8267 138.221L86.815 138.228C86.9765 138.507 87.0936 138.811 87.0936 139.158V171H143.318C148.113 171 152 166.482 152 160.908V154.58V119.318C152.007 115.191 149.881 111.518 146.624 109.942ZM154.678 100.763L154.702 100.777L145.188 117.284L145.164 117.269C144.825 117.851 144.223 118.26 143.502 118.26C142.782 118.26 142.18 117.851 141.841 117.269L141.829 117.276L141.732 117.109C141.725 117.092 141.71 117.078 141.703 117.061L132.317 100.77L132.327 100.763C132.16 100.474 132.039 100.159 132.039 99.8007C132.039 98.7224 132.912 97.8477 133.988 97.8477H153.012C154.088 97.8477 154.961 98.7224 154.961 99.8007C154.966 100.159 154.845 100.474 154.678 100.763Z" fill="black"/>
</svg>
