<svg width="180" height="178" viewBox="0 0 180 178" fill="none" xmlns="http://www.w3.org/2000/svg">
<path fill-rule="evenodd" clip-rule="evenodd" d="M179.976 55.916C179.833 53.7942 178.087 52.1132 175.931 52.1132H146.756V4.07447C146.756 1.82127 144.934 0 142.685 0H37.3175C35.0683 0 33.2462 1.82127 33.2462 4.07447V52.1132H4.07569H4.07124C1.91549 52.1132 0.169079 53.7942 0.0266967 55.916H0V137.782C0 140.03 1.82205 141.854 4.07124 141.854H33.2462V107.758H44.3409H135.659H146.754V141.854H175.929C178.178 141.854 180 140.03 180 137.782V55.916H179.976ZM135.661 70.365H44.3408V15.177C44.3408 12.9238 46.1629 11.1025 48.4121 11.1025H131.588C133.837 11.1025 135.659 12.9238 135.659 15.177V70.365H135.661Z" fill="black"/>
<path fill-rule="evenodd" clip-rule="evenodd" d="M0 54.8606C0 57.1138 1.82205 58.9351 4.07124 58.9351H86.6885C88.9377 58.9351 90.7597 57.1138 90.7597 54.8606V0H0V54.8606Z" transform="translate(44.6211 119.065)" fill="black"/>
</svg>
