<svg width="60" height="45" viewBox="0 0 60 45" fill="none" xmlns="http://www.w3.org/2000/svg">
<path fill-rule="evenodd" clip-rule="evenodd" d="M30.6792 44.6273L59.1776 24.0488C59.694 23.6768 59.9984 23.0749 60 22.4352C60 22.4304 60 22.4304 60 22.4304C59.9984 21.7867 59.6901 21.1865 59.1713 20.8129L30.673 0.367063C30.0728 -0.0641743 29.2832 -0.119461 28.629 0.222527C27.9756 0.558987 27.564 1.24296 27.564 1.98854V11.6108L1.96807 11.61C0.880351 11.61 0 12.4986 0 13.5972L0.000782534 31.4003C0 32.4974 0.880351 33.3867 1.96964 33.3875H27.5632V43.0129C27.5632 43.7553 27.9779 44.4369 28.6321 44.7797C29.2871 45.1209 30.0783 45.0625 30.6792 44.6273Z" fill="black"/>
</svg>
