<svg width="170" height="175" viewBox="0 0 170 175" fill="none" xmlns="http://www.w3.org/2000/svg">
<path fill-rule="evenodd" clip-rule="evenodd" d="M119.666 145.268H106.463C104.519 145.268 102.944 146.834 102.944 148.768H102.93V154.858H20.2552V59.5007H56.3086C58.2533 59.5007 59.8279 57.9348 59.8279 56.0006V20.1445H102.93V45.1101H102.963C103.058 46.9572 104.582 48.43 106.463 48.43H119.666C121.548 48.43 123.071 46.9572 123.167 45.1101H123.185V44.932V44.93C123.185 44.928 123.185 44.928 123.185 44.926V11.6311H123.175V3.50004C123.175 1.56591 121.601 0 119.656 0H114.672H56.3065H52.7873L0 52.5006V57.4512V59.5007V166.549V171.5C0 173.434 1.57452 175 3.51929 175H6.7375H116.435H119.654C121.598 175 123.173 173.434 123.173 171.5V166.547H123.183V148.766V148.764C123.185 146.836 121.611 145.268 119.666 145.268Z" fill="black"/>
<path fill-rule="evenodd" clip-rule="evenodd" d="M102.426 24.5367L78.7855 1.02573C77.4103 -0.341911 75.1828 -0.341911 73.8076 1.02573L9.10765 65.3719L9.24802 65.5115L9.02628 65.4528L0.175177 98.3026L0.18128 98.3046C-0.223539 99.5205 0.0470184 100.908 1.0194 101.875C2.09349 102.944 3.68226 103.166 4.98216 102.565L4.98623 102.577L37.6973 93.8598L37.6769 93.7849L37.7237 93.8335L102.426 29.4853C103.801 28.1197 103.801 25.9043 102.426 24.5367ZM10.9404 91.934L16.197 72.4248L30.5569 86.7062L10.9404 91.934Z" transform="translate(66.543 40.7905)" fill="black"/>
</svg>
